<?xml version="1.0"?>
<!--Icons from directory ""-->
<svg xmlns="http://www.w3.org/2000/svg" width="32" height="96" viewBox="0 0 32 96"><svg viewBox="0 0 266.89 266.89" width="32" height="32" id="facebook" y="0"><defs><style>.cls-1{fill:#fff;}</style></defs><title>White 2</title><g id="facebook-Calque_2" data-name="Calque 2"><g id="facebook-White"><path id="facebook-White-2" d="m252.16 0h-237.43a14.73 14.73 0 0 0 -14.73 14.73v237.43a14.73 14.73 0 0 0 14.73 14.73h127.83v-103.35h-34.78v-40.28h34.78v-29.71c0-34.47 21.05-53.24 51.81-53.24a285.37 285.37 0 0 1 31.08 1.59v36h-21.33c-16.72 0-20 7.95-20 19.61v25.72h39.88l-5.19 40.28h-34.66v103.38h68a14.73 14.73 0 0 0 14.73 -14.73v-237.43a14.73 14.73 0 0 0 -14.72 -14.73z" class="cls-1" data-name="White"/></g></g></svg><svg viewBox="0 0 250 203.18" width="32" height="32" id="twitter" y="32"><defs><style>.cls-1{fill:#fff;}</style></defs><title>Fichier 3</title><g id="twitter-Calque_2" data-name="Calque 2"><g id="twitter-Logo_FIXED" data-name="Logo &#x2014; FIXED"><path class="cls-1" d="m78.62 203.18c94.38 0 145.94-78.18 145.94-145.94 0-2.22 0-4.43-0.15-6.63a104.36 104.36 0 0 0 25.59 -26.56 102.38 102.38 0 0 1 -29.46 8.07 51.47 51.47 0 0 0 22.56 -28.36 102.79 102.79 0 0 1 -32.57 12.45 51.34 51.34 0 0 0 -87.41 46.79 145.62 145.62 0 0 1 -105.72 -53.61 51.33 51.33 0 0 0 15.88 68.48 50.91 50.91 0 0 1 -23.28 -6.42v0.65a51.31 51.31 0 0 0 41.15 50.28 51.21 51.21 0 0 1 -23.16 0.88 51.35 51.35 0 0 0 47.92 35.62 102.92 102.92 0 0 1 -63.7 22 104.41 104.41 0 0 1 -12.21 -0.74 145.21 145.21 0 0 0 78.62 23"/></g></g></svg><svg viewBox="0 0 1021.45 718.42" width="32" height="32" id="youtube" y="64"><defs><style>.cls-1{fill:#fff;}</style></defs><title>Fichier 2</title><g id="youtube-Calque_2" data-name="Calque 2"><g id="youtube-YouTube_Icon" data-name="YouTube Icon"><g id="youtube-Lozenge"><path class="cls-1" d="m1011.2 155s-10-70.39-40.61-101.39c-38.79-40.69-82.33-40.9-102.29-43.28-142.94-10.33-357.35-10.33-357.35-10.33h-0.44s-214.42 0-357.36 10.33c-20 2.38-63.49 2.58-102.35 43.27-30.62 31-40.58 101.4-40.58 101.4s-10.22 82.64-10.22 165.3v77.5c0 82.66 10.22 165.32 10.22 165.32s10 70.39 40.59 101.39c38.86 40.68 89.9 39.4 112.63 43.66 81.72 7.84 347.29 10.26 347.29 10.26s214.63-0.32 357.57-10.66c20-2.38 63.5-2.58 102.35-43.27 30.63-31 40.61-101.39 40.61-101.39s10.2-82.66 10.2-165.32v-77.49c-0.1-82.66-10.3-165.3-10.3-165.3zm-606 336.72v-287l276 144z"/></g></g></g></svg></svg>
